<?xml version="1.0" encoding="utf-8"?>
<!-- Generator: Adobe Illustrator 21.0.2, SVG Export Plug-In . SVG Version: 6.00 Build 0)  -->
<svg version="1.1" id="Layer_1" xmlns="http://www.w3.org/2000/svg" xmlns:xlink="http://www.w3.org/1999/xlink" x="0px" y="0px"
	 viewBox="0 0 296.8 209.6" style="enable-background:new 0 0 296.8 209.6;" xml:space="preserve">
<style type="text/css">
	.st0{fill:#3A3A3A;}
	.st1{fill:#E6407C;}
	.st2{fill:#33B084;}
</style>
<g>
	<g>
		<path class="st0" d="M75.6,114.8v10.6c0,1-0.2,1.8-0.7,2.6c-0.5,0.8-1.2,1.4-2.1,1.9s-2,0.7-3.2,0.7c-1.1,0-2-0.2-2.8-0.5
			c-0.8-0.4-1.5-0.9-2.3-1.6l1.4-1.6c0.6,0.5,1.2,1,1.7,1.2c0.6,0.3,1.2,0.4,1.9,0.4c1.2,0,2.1-0.3,2.7-0.8c0.6-0.6,1-1.3,1-2.3l0-2
			c-0.4,0.7-1,1.2-1.7,1.6c-0.8,0.4-1.6,0.6-2.6,0.6c-1,0-1.9-0.2-2.7-0.7c-0.8-0.5-1.5-1.2-1.9-2c-0.5-0.8-0.7-1.8-0.7-2.8
			c0-1.1,0.3-2,0.8-2.9c0.5-0.9,1.2-1.5,2-2c0.8-0.5,1.8-0.7,2.7-0.7c0.9,0,1.7,0.2,2.5,0.5c0.8,0.4,1.3,0.8,1.7,1.4l0.2-1.5H75.6z
			 M71.9,122.9c0.7-0.5,1.1-1.1,1.3-1.9v-2.1c-0.2-0.8-0.7-1.4-1.3-1.8c-0.7-0.5-1.4-0.7-2.3-0.7c-1,0-1.9,0.3-2.6,1
			c-0.7,0.7-1,1.5-1,2.6c0,0.7,0.2,1.3,0.5,1.9c0.3,0.6,0.8,1,1.3,1.3c0.6,0.3,1.2,0.5,1.8,0.5C70.5,123.7,71.2,123.4,71.9,122.9z"
			/>
		<path class="st0" d="M87.2,122.7l1.1,1.8c-0.6,0.4-1.2,0.7-1.8,0.9c-0.7,0.2-1.3,0.3-1.9,0.3c-1.2,0-2.2-0.2-3.1-0.7
			c-0.9-0.5-1.5-1.1-2-2c-0.5-0.8-0.7-1.8-0.7-2.9c0-1,0.3-2,0.8-2.8c0.5-0.9,1.2-1.5,2.1-2c0.9-0.5,1.9-0.8,3-0.8
			c1.4,0,2.5,0.4,3.5,1.2c0.9,0.8,1.6,1.9,1.9,3.4l-8.4,2.9c0.3,0.5,0.7,0.9,1.2,1.2c0.5,0.3,1.1,0.4,1.8,0.4
			C85.5,123.6,86.4,123.3,87.2,122.7z M82.1,117.3c-0.6,0.7-0.9,1.5-0.9,2.6c0,0.3,0,0.4,0,0.6l6.1-2.3c-0.3-0.6-0.6-1-1.1-1.4
			c-0.5-0.4-1-0.5-1.7-0.5C83.5,116.3,82.7,116.6,82.1,117.3z"/>
		<path class="st0" d="M96.3,110.2v4.7h2.9v1.9h-2.9v8.6h-2.4v-8.6H92v-1.9h1.9v-4.7H96.3z"/>
		<path class="st0" d="M113.6,110.2v4.7h2.9v1.9h-2.9v8.6h-2.4v-8.6h-1.9v-1.9h1.9v-4.7H113.6z"/>
		<path class="st0" d="M128.3,115.3c0.6,0.6,1,1.3,1,2.3v7.8h-2.4v-7c0-0.6-0.2-1.1-0.5-1.4c-0.3-0.3-0.8-0.5-1.5-0.5
			c-0.6,0-1.2,0.2-1.7,0.5c-0.5,0.3-0.9,0.8-1.2,1.4c-0.3,0.6-0.4,1.3-0.4,2v4.9h-2.4v-19.7h2.3v11.1c0.4-0.7,1-1.3,1.7-1.7
			c0.7-0.4,1.6-0.6,2.5-0.6C126.8,114.4,127.7,114.7,128.3,115.3z"/>
		<path class="st0" d="M140.9,122.7l1.1,1.8c-0.6,0.4-1.2,0.7-1.8,0.9c-0.7,0.2-1.3,0.3-1.9,0.3c-1.2,0-2.2-0.2-3.1-0.7
			c-0.9-0.5-1.5-1.1-2-2c-0.5-0.8-0.7-1.8-0.7-2.9c0-1,0.3-2,0.8-2.8c0.5-0.9,1.2-1.5,2.1-2c0.9-0.5,1.9-0.8,3-0.8
			c1.4,0,2.5,0.4,3.5,1.2c0.9,0.8,1.6,1.9,1.9,3.4l-8.4,2.9c0.3,0.5,0.7,0.9,1.2,1.2c0.5,0.3,1.1,0.4,1.8,0.4
			C139.2,123.6,140.1,123.3,140.9,122.7z M135.8,117.3c-0.6,0.7-0.9,1.5-0.9,2.6c0,0.3,0,0.4,0,0.6l6.1-2.3c-0.3-0.6-0.6-1-1.1-1.4
			c-0.5-0.4-1-0.5-1.7-0.5C137.2,116.3,136.4,116.6,135.8,117.3z"/>
		<path class="st0" d="M155.4,125.2c-0.7-0.3-1.3-0.7-1.7-1.2l1-1.4c0.4,0.4,0.9,0.7,1.3,0.9c0.5,0.2,0.9,0.3,1.4,0.3
			c0.6,0,1-0.1,1.4-0.3c0.4-0.2,0.5-0.6,0.5-1c0-0.4-0.1-0.6-0.3-0.9c-0.2-0.2-0.5-0.4-0.8-0.5c-0.3-0.1-0.8-0.3-1.4-0.5
			c-1.8-0.6-2.7-1.6-2.7-3.1c0-0.9,0.3-1.6,1-2.3c0.7-0.6,1.6-0.9,2.7-0.9c0.7,0,1.4,0.1,2,0.3c0.6,0.2,1.1,0.5,1.6,0.9l-0.9,1.5
			c-0.3-0.3-0.6-0.5-1-0.7c-0.4-0.2-0.8-0.3-1.2-0.3c-0.5,0-0.9,0.1-1.2,0.3c-0.3,0.2-0.5,0.5-0.5,0.9c0,0.3,0.1,0.6,0.3,0.8
			c0.2,0.2,0.4,0.4,0.7,0.5c0.2,0.1,0.7,0.3,1.4,0.5c0.9,0.3,1.5,0.7,2,1.1c0.5,0.5,0.7,1.1,0.7,1.9c0,1-0.4,1.9-1.1,2.5
			c-0.7,0.7-1.7,1-3,1C156.9,125.6,156.1,125.5,155.4,125.2z"/>
		<path class="st0" d="M164.9,117.2c0.5-0.9,1.2-1.5,2.1-2c0.9-0.5,1.9-0.7,3-0.7c1.1,0,2.1,0.2,3,0.7c0.9,0.5,1.6,1.2,2,2
			c0.5,0.8,0.7,1.8,0.7,2.9c0,1.1-0.2,2-0.7,2.9c-0.5,0.9-1.2,1.5-2.1,2s-1.9,0.7-3,0.7c-1.1,0-2.1-0.2-3-0.7
			c-0.9-0.5-1.6-1.1-2.1-2c-0.5-0.8-0.8-1.8-0.8-3C164.1,119,164.4,118,164.9,117.2z M167,121.9c0.3,0.6,0.7,1,1.2,1.3
			c0.5,0.3,1.1,0.5,1.7,0.5c1,0,1.8-0.3,2.4-1c0.6-0.7,1-1.6,1-2.6c0-1-0.3-1.9-1-2.6c-0.6-0.7-1.5-1.1-2.4-1.1
			c-0.6,0-1.2,0.2-1.7,0.5c-0.5,0.3-0.9,0.8-1.2,1.3c-0.3,0.6-0.4,1.2-0.4,1.8C166.5,120.7,166.7,121.3,167,121.9z"/>
		<path class="st0" d="M188.7,114.8v10.5h-2.1l-0.2-2c-0.4,0.7-0.9,1.3-1.7,1.7c-0.7,0.4-1.6,0.7-2.5,0.7c-1,0-1.8-0.3-2.4-0.9
			c-0.6-0.6-0.9-1.3-1-2.3v-7.8h2.4v7c0,0.6,0.2,1.1,0.5,1.4c0.3,0.3,0.8,0.5,1.4,0.5c0.6,0,1.1-0.2,1.6-0.5
			c0.5-0.3,0.9-0.8,1.1-1.4c0.3-0.6,0.4-1.3,0.4-2v-4.9H188.7z"/>
		<path class="st0" d="M196.3,110.2v4.7h2.9v1.9h-2.9v8.6h-2.4v-8.6H192v-1.9h1.9v-4.7H196.3z"/>
		<path class="st0" d="M202.3,110.1c0.3-0.3,0.6-0.4,1-0.4c0.4,0,0.7,0.1,1,0.4c0.3,0.3,0.4,0.6,0.4,0.9c0,0.4-0.1,0.7-0.4,0.9
			c-0.3,0.3-0.6,0.4-1,0.4c-0.4,0-0.7-0.1-1-0.4c-0.3-0.3-0.4-0.6-0.4-0.9C201.9,110.7,202,110.4,202.3,110.1z M204.4,114.8v10.5
			H202v-10.5H204.4z"/>
		<path class="st0" d="M208.4,117.2c0.5-0.9,1.2-1.5,2.1-2c0.9-0.5,1.9-0.7,3-0.7c1.1,0,2.1,0.2,3,0.7c0.9,0.5,1.6,1.2,2,2
			c0.5,0.8,0.7,1.8,0.7,2.9c0,1.1-0.2,2-0.7,2.9c-0.5,0.9-1.2,1.5-2.1,2s-1.9,0.7-3,0.7c-1.1,0-2.1-0.2-3-0.7
			c-0.9-0.5-1.6-1.1-2.1-2c-0.5-0.8-0.8-1.8-0.8-3C207.6,119,207.9,118,208.4,117.2z M210.5,121.9c0.3,0.6,0.7,1,1.2,1.3
			c0.5,0.3,1.1,0.5,1.7,0.5c1,0,1.8-0.3,2.4-1c0.6-0.7,1-1.6,1-2.6c0-1-0.3-1.9-1-2.6c-0.6-0.7-1.5-1.1-2.4-1.1
			c-0.6,0-1.2,0.2-1.7,0.5c-0.5,0.3-0.9,0.8-1.2,1.3c-0.3,0.6-0.4,1.2-0.4,1.8C210,120.7,210.2,121.3,210.5,121.9z"/>
		<path class="st0" d="M231.4,115.3c0.6,0.6,1,1.3,1,2.3v7.8H230v-7c0-0.6-0.2-1.1-0.5-1.4c-0.3-0.3-0.8-0.5-1.5-0.5
			c-0.9,0-1.7,0.4-2.3,1.1c-0.6,0.7-0.9,1.7-0.9,2.9v4.9h-2.4v-10.5h2.1l0.2,2c0.4-0.8,0.9-1.4,1.7-1.8c0.7-0.4,1.6-0.6,2.6-0.6
			C229.9,114.4,230.8,114.7,231.4,115.3z"/>
		<path class="st0" d="M112.5,140.4c0,0.3,0,0.5-0.1,0.7s-0.2,0.4-0.4,0.5c-0.2,0.2-0.3,0.3-0.5,0.4s-0.4,0.2-0.6,0.3
			c-0.2,0.1-0.5,0.1-0.7,0.2c-0.2,0-0.5,0.1-0.7,0.1c-0.5,0-1,0-1.4-0.1c-0.4,0-0.8-0.1-1.2-0.2v-1.2c0.4,0.1,0.9,0.2,1.3,0.3
			c0.4,0.1,0.8,0.1,1.3,0.1c0.6,0,1.1-0.1,1.4-0.2s0.4-0.4,0.4-0.7c0-0.1,0-0.3-0.1-0.4c0-0.1-0.1-0.2-0.3-0.3
			c-0.1-0.1-0.3-0.2-0.6-0.3c-0.3-0.1-0.6-0.2-1.1-0.4c-0.3-0.1-0.6-0.2-0.9-0.3c-0.3-0.1-0.5-0.3-0.7-0.4s-0.4-0.4-0.5-0.6
			s-0.2-0.5-0.2-0.8c0-0.2,0-0.4,0.1-0.7c0.1-0.2,0.3-0.5,0.5-0.7c0.2-0.2,0.5-0.4,0.9-0.5c0.4-0.1,0.9-0.2,1.5-0.2c0.3,0,0.6,0,1,0
			s0.7,0.1,1.1,0.2v1.1c-0.4-0.1-0.8-0.2-1.1-0.2c-0.4,0-0.7-0.1-0.9-0.1c-0.3,0-0.6,0-0.8,0.1c-0.2,0-0.4,0.1-0.5,0.2
			c-0.1,0.1-0.2,0.2-0.3,0.3c-0.1,0.1-0.1,0.2-0.1,0.4s0,0.3,0.1,0.4c0.1,0.1,0.1,0.2,0.3,0.3c0.1,0.1,0.3,0.2,0.6,0.3
			s0.6,0.2,1,0.3c0.4,0.1,0.8,0.3,1.1,0.4c0.3,0.1,0.5,0.3,0.7,0.5s0.3,0.4,0.4,0.6C112.4,139.9,112.5,140.1,112.5,140.4z"/>
		<path class="st0" d="M123.9,138.6c0,0.6-0.1,1.1-0.2,1.6c-0.2,0.5-0.4,0.9-0.7,1.2c-0.3,0.3-0.7,0.6-1.1,0.8
			c-0.4,0.2-0.9,0.3-1.5,0.3c-0.5,0-1-0.1-1.4-0.2c-0.4-0.2-0.8-0.4-1.1-0.7c-0.3-0.3-0.5-0.7-0.7-1.2c-0.2-0.5-0.2-1-0.2-1.6
			c0-0.6,0.1-1.1,0.2-1.6c0.2-0.5,0.4-0.9,0.7-1.2s0.7-0.6,1.1-0.8s0.9-0.3,1.5-0.3c0.5,0,1,0.1,1.4,0.2c0.4,0.2,0.8,0.4,1.1,0.7
			c0.3,0.3,0.5,0.7,0.7,1.2C123.9,137.5,123.9,138,123.9,138.6z M122.6,138.7c0-0.5,0-0.9-0.2-1.2c-0.1-0.3-0.2-0.6-0.4-0.8
			c-0.2-0.2-0.4-0.4-0.7-0.5c-0.3-0.1-0.6-0.2-0.9-0.2c-0.4,0-0.7,0.1-1,0.2c-0.3,0.1-0.5,0.3-0.7,0.6c-0.2,0.2-0.3,0.5-0.4,0.9
			c-0.1,0.3-0.1,0.7-0.1,1c0,0.5,0,0.9,0.2,1.2c0.1,0.3,0.2,0.6,0.4,0.9c0.2,0.2,0.4,0.4,0.7,0.5c0.3,0.1,0.6,0.2,0.9,0.2
			c0.4,0,0.7-0.1,1-0.2c0.3-0.1,0.5-0.3,0.7-0.6c0.2-0.2,0.3-0.5,0.4-0.9C122.6,139.4,122.6,139.1,122.6,138.7z"/>
		<path class="st0" d="M135.3,133.2c-0.7-0.1-1.2-0.2-1.7-0.2c-1.1,0-1.7,0.6-1.7,1.8v1.3h3.2v1.1h-3.2v5.2h-1.3v-5.2h-2.4v-1.1h2.4
			v-1.2c0-2,1-2.9,3.1-2.9c0.5,0,1.1,0.1,1.7,0.2V133.2z"/>
		<path class="st0" d="M146,142.3c-0.3,0.1-0.6,0.1-0.9,0.2c-0.3,0-0.6,0-0.9,0c-0.9,0-1.6-0.2-2.1-0.6c-0.5-0.4-0.7-1.1-0.7-1.9
			v-3.8h-2.1V135h2.1v-2l1.3-0.3v2.4h3.3v1.1h-3.3v3.7c0,0.5,0.1,0.9,0.4,1.2c0.3,0.3,0.7,0.4,1.2,0.4c0.2,0,0.5,0,0.8-0.1
			c0.3,0,0.6-0.1,0.9-0.2V142.3z"/>
		<path class="st0" d="M158.1,135l-1.1,7.4h-1.5l-1.1-3.1l-0.2-0.7l-0.2,0.8l-1,3h-1.5l-1.1-7.4h1.2l0.6,5l0.1,1.1l0.3-1l1.1-3.3
			h0.9l1.2,3.3l0.3,1l0.1-1l0.6-5H158.1z"/>
		<path class="st0" d="M167,142.4l0-1c-0.4,0.4-0.8,0.7-1.2,0.9c-0.4,0.2-0.8,0.3-1.3,0.3c-0.4,0-0.8-0.1-1.1-0.2s-0.5-0.3-0.7-0.4
			c-0.2-0.2-0.3-0.4-0.4-0.7c-0.1-0.3-0.1-0.5-0.1-0.8c0-0.7,0.3-1.3,0.8-1.7c0.5-0.4,1.4-0.6,2.4-0.6h1.5v-0.6c0-0.4-0.1-0.8-0.4-1
			c-0.3-0.3-0.7-0.4-1.3-0.4c-0.4,0-0.8,0-1.2,0.1c-0.4,0.1-0.8,0.2-1.2,0.4v-1.1c0.2-0.1,0.3-0.1,0.5-0.2c0.2-0.1,0.4-0.1,0.6-0.2
			s0.4-0.1,0.7-0.1c0.2,0,0.5,0,0.7,0c0.4,0,0.8,0,1.2,0.1c0.4,0.1,0.7,0.2,0.9,0.4c0.2,0.2,0.4,0.5,0.6,0.8s0.2,0.7,0.2,1.1v5.1
			H167z M166.9,139h-1.6c-0.3,0-0.6,0-0.8,0.1c-0.2,0.1-0.4,0.2-0.6,0.3s-0.3,0.3-0.3,0.4c-0.1,0.2-0.1,0.3-0.1,0.6
			c0,0.1,0,0.3,0.1,0.4c0,0.1,0.1,0.2,0.2,0.3s0.2,0.2,0.4,0.2s0.3,0.1,0.6,0.1c0.3,0,0.6-0.1,1-0.3c0.4-0.2,0.8-0.5,1.2-0.8V139z"
			/>
		<path class="st0" d="M173.5,135h1.2l0,1.4c0.4-0.5,0.9-0.9,1.3-1.1c0.4-0.2,0.8-0.4,1.3-0.4c0.8,0,1.3,0.2,1.7,0.7
			c0.4,0.5,0.6,1.2,0.5,2.2h-1.3c0-0.6-0.1-1.1-0.3-1.4c-0.2-0.3-0.5-0.4-0.9-0.4c-0.2,0-0.3,0-0.5,0.1c-0.2,0.1-0.4,0.2-0.5,0.3
			c-0.2,0.1-0.4,0.3-0.6,0.5s-0.4,0.5-0.7,0.8v4.7h-1.3V135z"/>
		<path class="st0" d="M190.5,138.3c0,0.2,0,0.3,0,0.5s0,0.2,0,0.3h-5.2c0,0.8,0.2,1.3,0.6,1.7c0.4,0.4,1,0.6,1.8,0.6
			c0.2,0,0.4,0,0.6,0c0.2,0,0.4,0,0.6-0.1s0.4-0.1,0.6-0.1c0.2,0,0.4-0.1,0.5-0.1v1c-0.3,0.1-0.7,0.2-1.2,0.2
			c-0.4,0.1-0.9,0.1-1.4,0.1c-0.6,0-1.2-0.1-1.6-0.3s-0.8-0.4-1.1-0.7c-0.3-0.3-0.5-0.7-0.6-1.2c-0.1-0.5-0.2-1-0.2-1.6
			c0-0.5,0.1-1,0.2-1.5c0.1-0.5,0.4-0.9,0.7-1.2c0.3-0.3,0.6-0.6,1.1-0.8s0.9-0.3,1.4-0.3c0.5,0,1,0.1,1.4,0.2
			c0.4,0.2,0.7,0.4,1,0.7c0.3,0.3,0.5,0.7,0.6,1.1C190.4,137.3,190.5,137.8,190.5,138.3z M189.1,138.1c0-0.3,0-0.6-0.1-0.9
			c-0.1-0.3-0.2-0.5-0.4-0.7c-0.2-0.2-0.4-0.3-0.6-0.5c-0.2-0.1-0.5-0.2-0.8-0.2c-0.3,0-0.5,0.1-0.8,0.2c-0.2,0.1-0.4,0.3-0.6,0.5
			s-0.3,0.4-0.4,0.7c-0.1,0.3-0.2,0.6-0.2,0.9H189.1z"/>
	</g>
	<g>
		<g>
			<path class="st1" d="M139.5,97.8l-3-3l14.2-14.1l-14.2-14.1l3-3l15.7,15.6c0.4,0.4,0.6,0.9,0.6,1.5s-0.2,1.1-0.6,1.5L139.5,97.8z
				"/>
		</g>
		<g>
			<path class="st2" d="M157.3,77.4l-15.7-15.6c-0.4-0.4-0.6-0.9-0.6-1.5s0.2-1.1,0.6-1.5l15.7-15.6l3,3l-14.2,14.1l14.2,14.1
				L157.3,77.4z"/>
		</g>
	</g>
</g>
</svg>
