<?xml version="1.0" encoding="utf-8"?>
<!-- Generator: Adobe Illustrator 21.0.2, SVG Export Plug-In . SVG Version: 6.00 Build 0)  -->
<svg version="1.1" id="Layer_1" xmlns="http://www.w3.org/2000/svg" xmlns:xlink="http://www.w3.org/1999/xlink" x="0px" y="0px"
	 viewBox="0 0 841.9 595.3" style="enable-background:new 0 0 841.9 595.3;" xml:space="preserve">
<style type="text/css">
	.st0{fill:#3A3A3A;}
	.st1{fill:#E6407C;}
	.st2{fill:#33B084;}
</style>
<g>
	<g>
		<path class="st0" d="M235.3,281.9v24.5c0,2.2-0.6,4.3-1.7,6.1c-1.1,1.8-2.8,3.2-4.9,4.3c-2.1,1.1-4.6,1.6-7.4,1.6
			c-2.5,0-4.6-0.4-6.4-1.2c-1.8-0.8-3.6-2-5.4-3.6l3.2-3.8c1.3,1.3,2.7,2.2,4,2.9c1.3,0.6,2.8,1,4.4,1c2.7,0,4.8-0.6,6.3-1.9
			c1.5-1.3,2.2-3,2.3-5.2l0.1-4.6c-0.9,1.5-2.2,2.8-4,3.7c-1.7,0.9-3.8,1.4-6,1.4c-2.2,0-4.3-0.6-6.2-1.7c-1.9-1.1-3.4-2.7-4.5-4.6
			c-1.1-2-1.7-4.1-1.7-6.5c0-2.5,0.6-4.7,1.7-6.7c1.2-2,2.7-3.5,4.7-4.7c2-1.1,4.1-1.7,6.3-1.7c2.1,0,4,0.4,5.8,1.2
			c1.8,0.8,3.1,1.9,3.9,3.2l0.4-3.4H235.3z M226.9,300.6c1.5-1.1,2.5-2.6,3-4.5v-4.8c-0.5-1.8-1.6-3.2-3.1-4.3
			c-1.5-1.1-3.3-1.6-5.3-1.6c-2.4,0-4.4,0.8-6,2.4c-1.6,1.6-2.4,3.6-2.4,6c0,1.6,0.4,3,1.1,4.3c0.7,1.3,1.8,2.3,3.1,3.1
			c1.3,0.8,2.7,1.1,4.2,1.1C223.5,302.3,225.4,301.7,226.9,300.6z"/>
		<path class="st0" d="M262.2,300l2.5,4.1c-1.3,0.9-2.7,1.5-4.2,2c-1.5,0.5-3,0.7-4.4,0.7c-2.7,0-5.1-0.6-7.1-1.7
			c-2-1.1-3.6-2.7-4.7-4.6c-1.1-2-1.6-4.2-1.6-6.6c0-2.4,0.6-4.6,1.8-6.6c1.2-2,2.8-3.5,4.9-4.7c2.1-1.2,4.4-1.7,6.8-1.7
			c3.2,0,5.8,0.9,8,2.8c2.1,1.9,3.6,4.5,4.4,7.8l-19.3,6.8c0.7,1.2,1.7,2.2,2.9,2.9c1.2,0.7,2.6,1,4.1,1
			C258.3,302.1,260.3,301.4,262.2,300z M250.3,287.6c-1.5,1.6-2.2,3.6-2.2,6c0,0.6,0,1,0.1,1.4l14.2-5.2c-0.6-1.3-1.4-2.4-2.5-3.2
			c-1.1-0.8-2.4-1.2-4-1.2C253.6,285.2,251.8,286,250.3,287.6z"/>
		<path class="st0" d="M283.3,271.2v10.8h6.6v4.4h-6.6v19.9h-5.5v-19.9h-4.5v-4.4h4.5v-10.8H283.3z"/>
		<path class="st0" d="M323.1,271.2v10.8h6.6v4.4h-6.6v19.9h-5.5v-19.9h-4.5v-4.4h4.5v-10.8H323.1z"/>
		<path class="st0" d="M357.1,283c1.5,1.4,2.3,3.1,2.3,5.3v18h-5.5v-16.1c-0.1-1.4-0.5-2.4-1.2-3.2c-0.7-0.8-1.9-1.2-3.4-1.2
			c-1.4,0-2.7,0.4-3.8,1.2c-1.1,0.8-2,1.9-2.7,3.3c-0.6,1.4-1,3-1,4.7v11.4h-5.5v-45.6h5.3v25.6c0.9-1.6,2.2-2.9,3.9-3.9
			c1.7-1,3.7-1.5,5.8-1.5C353.7,280.9,355.6,281.6,357.1,283z"/>
		<path class="st0" d="M386.2,300l2.5,4.1c-1.3,0.9-2.7,1.5-4.2,2c-1.5,0.5-3,0.7-4.4,0.7c-2.7,0-5.1-0.6-7.1-1.7
			c-2-1.1-3.6-2.7-4.7-4.6c-1.1-2-1.6-4.2-1.6-6.6c0-2.4,0.6-4.6,1.8-6.6c1.2-2,2.8-3.5,4.9-4.7c2.1-1.2,4.4-1.7,6.8-1.7
			c3.2,0,5.8,0.9,8,2.8c2.1,1.9,3.6,4.5,4.4,7.8l-19.3,6.8c0.7,1.2,1.7,2.2,2.9,2.9c1.2,0.7,2.6,1,4.1,1
			C382.3,302.1,384.3,301.4,386.2,300z M374.3,287.6c-1.5,1.6-2.2,3.6-2.2,6c0,0.6,0,1,0.1,1.4l14.2-5.2c-0.6-1.3-1.4-2.4-2.5-3.2
			c-1.1-0.8-2.4-1.2-4-1.2C377.6,285.2,375.8,286,374.3,287.6z"/>
		<path class="st0" d="M419.7,305.8c-1.6-0.6-2.9-1.5-4-2.8l2.4-3.2c1,0.9,2,1.7,3.1,2.2c1.1,0.5,2.1,0.8,3.2,0.8
			c1.3,0,2.4-0.3,3.2-0.8c0.8-0.5,1.2-1.3,1.2-2.4c0-0.8-0.3-1.5-0.8-2c-0.5-0.5-1.1-0.9-1.7-1.1c-0.6-0.2-1.7-0.6-3.3-1.1
			c-4.2-1.3-6.2-3.7-6.2-7.1c0-2,0.8-3.8,2.3-5.2c1.5-1.4,3.6-2.2,6.3-2.2c1.7,0,3.3,0.2,4.6,0.6c1.3,0.4,2.6,1.1,3.7,2.1l-2.2,3.4
			c-0.6-0.7-1.4-1.2-2.4-1.6c-1-0.4-1.9-0.6-2.7-0.6c-1.1,0-2,0.3-2.8,0.8c-0.8,0.5-1.2,1.2-1.2,2.1c0,0.7,0.3,1.4,0.8,1.9
			c0.5,0.5,1,0.8,1.6,1.1c0.5,0.2,1.6,0.6,3.2,1.1c2,0.7,3.6,1.5,4.7,2.6c1.1,1.1,1.7,2.5,1.7,4.3c0,2.4-0.8,4.3-2.5,5.8
			c-1.6,1.5-4,2.3-7,2.3C423.1,306.7,421.4,306.4,419.7,305.8z"/>
		<path class="st0" d="M441.6,287.2c1.2-2,2.8-3.5,4.8-4.7c2.1-1.1,4.4-1.7,7-1.7s4.9,0.6,6.9,1.7c2,1.1,3.6,2.7,4.7,4.6
			c1.1,2,1.7,4.2,1.7,6.6c0,2.4-0.6,4.6-1.7,6.6c-1.1,2-2.7,3.5-4.7,4.7c-2,1.1-4.4,1.7-7,1.7c-2.5,0-4.8-0.5-6.9-1.6
			c-2-1.1-3.6-2.6-4.8-4.6c-1.2-2-1.7-4.2-1.7-6.8C439.9,291.4,440.4,289.2,441.6,287.2z M446.4,298.1c0.7,1.3,1.6,2.3,2.8,3.1
			c1.2,0.7,2.5,1.1,4,1.1c2.3,0,4.2-0.8,5.6-2.4c1.5-1.6,2.2-3.6,2.2-6c0-2.4-0.7-4.4-2.2-6c-1.5-1.6-3.4-2.4-5.6-2.4
			c-1.5,0-2.8,0.4-4,1.1s-2.1,1.8-2.8,3.1s-1,2.7-1,4.2C445.4,295.4,445.7,296.8,446.4,298.1z"/>
		<path class="st0" d="M479.5,260.6v45.6H474v-45.6H479.5z"/>
		<path class="st0" d="M511.6,281.9v24.3h-4.9l-0.4-4.6c-0.8,1.6-2.1,3-3.8,4c-1.7,1-3.6,1.6-5.8,1.6c-2.2,0-4.1-0.7-5.5-2
			c-1.4-1.4-2.2-3.1-2.3-5.3v-18h5.5v16c0.1,1.4,0.5,2.5,1.2,3.3c0.7,0.8,1.8,1.2,3.3,1.3c1.3,0,2.5-0.4,3.6-1.2
			c1.1-0.8,2-1.9,2.6-3.3c0.6-1.4,1-3,1-4.7v-11.3H511.6z"/>
		<path class="st0" d="M529,271.2v10.8h6.6v4.4H529v19.9h-5.5v-19.9h-4.5v-4.4h4.5v-10.8H529z"/>
		<path class="st0" d="M542.9,270.9c0.7-0.6,1.4-0.9,2.3-0.9c0.9,0,1.6,0.3,2.3,0.9c0.6,0.6,1,1.3,1,2.2c0,0.9-0.3,1.6-1,2.2
			c-0.6,0.6-1.4,0.9-2.3,0.9c-0.9,0-1.6-0.3-2.3-0.9c-0.7-0.6-1-1.3-1-2.2C541.9,272.2,542.3,271.5,542.9,270.9z M547.8,281.9v24.3
			h-5.5v-24.3H547.8z"/>
		<path class="st0" d="M556.9,287.2c1.2-2,2.8-3.5,4.8-4.7c2.1-1.1,4.4-1.7,7-1.7c2.6,0,4.9,0.6,6.9,1.7c2,1.1,3.6,2.7,4.7,4.6
			c1.1,2,1.7,4.2,1.7,6.6c0,2.4-0.6,4.6-1.7,6.6c-1.1,2-2.7,3.5-4.7,4.7c-2,1.1-4.4,1.7-7,1.7c-2.5,0-4.8-0.5-6.9-1.6
			c-2-1.1-3.6-2.6-4.8-4.6c-1.2-2-1.7-4.2-1.7-6.8C555.2,291.4,555.8,289.2,556.9,287.2z M561.8,298.1c0.7,1.3,1.6,2.3,2.8,3.1
			c1.2,0.7,2.5,1.1,4,1.1c2.3,0,4.2-0.8,5.6-2.4c1.5-1.6,2.2-3.6,2.2-6c0-2.4-0.7-4.4-2.2-6c-1.5-1.6-3.4-2.4-5.6-2.4
			c-1.5,0-2.8,0.4-4,1.1s-2.1,1.8-2.8,3.1c-0.7,1.3-1,2.7-1,4.2C560.7,295.4,561.1,296.8,561.8,298.1z"/>
		<path class="st0" d="M610.1,283c1.5,1.4,2.3,3.1,2.3,5.3v18h-5.5v-16.1c-0.1-1.4-0.5-2.4-1.2-3.2c-0.7-0.8-1.9-1.2-3.4-1.2
			c-2.2,0-3.9,0.9-5.3,2.6c-1.4,1.7-2.1,3.9-2.1,6.6v11.4h-5.5v-24.3h4.9l0.4,4.7c0.9-1.8,2.2-3.1,3.9-4.1s3.7-1.5,5.9-1.5
			C606.7,280.9,608.6,281.6,610.1,283z"/>
		<path class="st0" d="M328.8,340.8c0,0.6-0.1,1.1-0.3,1.6c-0.2,0.5-0.5,0.9-0.8,1.3c-0.3,0.4-0.8,0.7-1.2,0.9
			c-0.5,0.3-1,0.5-1.5,0.6c-0.5,0.2-1.1,0.3-1.6,0.4c-0.6,0.1-1.1,0.1-1.6,0.1c-1.1,0-2.2-0.1-3.2-0.2c-1-0.1-1.9-0.3-2.8-0.5v-2.7
			c1,0.3,2,0.5,3,0.6c1,0.1,2,0.2,2.9,0.2c1.4,0,2.5-0.2,3.1-0.6c0.7-0.4,1-0.9,1-1.6c0-0.3-0.1-0.6-0.2-0.8s-0.3-0.5-0.6-0.7
			c-0.3-0.2-0.7-0.4-1.3-0.7c-0.6-0.2-1.4-0.5-2.4-0.8c-0.8-0.2-1.5-0.5-2.1-0.8s-1.2-0.6-1.7-1c-0.5-0.4-0.8-0.9-1.1-1.4
			c-0.3-0.5-0.4-1.2-0.4-1.9c0-0.5,0.1-1,0.3-1.6s0.6-1.1,1.1-1.6c0.5-0.5,1.2-0.9,2.1-1.2s2-0.5,3.4-0.5c0.7,0,1.4,0,2.2,0.1
			c0.8,0.1,1.7,0.2,2.5,0.4v2.6c-0.9-0.2-1.8-0.4-2.6-0.5s-1.5-0.2-2.2-0.2c-0.7,0-1.4,0.1-1.9,0.2c-0.5,0.1-0.9,0.3-1.2,0.5
			s-0.5,0.4-0.7,0.7s-0.2,0.5-0.2,0.9s0.1,0.6,0.2,0.8c0.1,0.2,0.3,0.5,0.7,0.7c0.3,0.2,0.8,0.5,1.3,0.7c0.6,0.2,1.3,0.5,2.2,0.8
			c1,0.3,1.8,0.6,2.5,0.9c0.7,0.3,1.2,0.7,1.7,1.1c0.4,0.4,0.7,0.8,0.9,1.3S328.8,340.2,328.8,340.8z"/>
		<path class="st0" d="M355.1,336.8c0,1.3-0.2,2.5-0.6,3.6c-0.4,1.1-0.9,2-1.6,2.8c-0.7,0.8-1.6,1.4-2.6,1.8c-1,0.4-2.1,0.7-3.4,0.7
			c-1.2,0-2.3-0.2-3.3-0.6c-1-0.4-1.8-0.9-2.5-1.7c-0.7-0.7-1.2-1.6-1.5-2.7s-0.5-2.3-0.5-3.7c0-1.3,0.2-2.5,0.6-3.6s0.9-2,1.6-2.8
			c0.7-0.8,1.5-1.4,2.6-1.8c1-0.4,2.1-0.7,3.4-0.7c1.2,0,2.3,0.2,3.3,0.6s1.8,0.9,2.5,1.7c0.7,0.7,1.2,1.6,1.5,2.7
			C354.9,334.2,355.1,335.4,355.1,336.8z M352.1,337c0-1-0.1-2-0.3-2.7s-0.6-1.4-1-2c-0.4-0.5-1-0.9-1.6-1.2
			c-0.6-0.3-1.3-0.4-2.1-0.4c-0.9,0-1.6,0.2-2.3,0.5c-0.6,0.3-1.1,0.8-1.5,1.4c-0.4,0.6-0.7,1.2-0.9,2c-0.2,0.8-0.3,1.6-0.3,2.4
			c0,1,0.1,2,0.3,2.8s0.6,1.4,1,2c0.4,0.5,0.9,0.9,1.6,1.2c0.6,0.3,1.3,0.4,2.1,0.4c0.9,0,1.6-0.2,2.3-0.5c0.6-0.3,1.1-0.8,1.5-1.4
			c0.4-0.6,0.7-1.2,0.9-2S352.1,337.8,352.1,337z"/>
		<path class="st0" d="M381,324.3c-1.5-0.3-2.9-0.5-4-0.5c-2.6,0-4,1.4-4,4.2v3h7.4v2.5h-7.4v12.1h-3v-12.1h-5.5v-2.5h5.5v-2.8
			c0-4.5,2.4-6.8,7.1-6.8c1.2,0,2.5,0.1,3.9,0.4V324.3z"/>
		<path class="st0" d="M405.5,345.2c-0.7,0.2-1.4,0.3-2.1,0.4c-0.7,0.1-1.4,0.1-2.2,0.1c-2.1,0-3.7-0.5-4.8-1.4s-1.6-2.4-1.6-4.4
			v-8.9h-4.8v-2.5h4.8v-4.7l2.9-0.8v5.4h7.6v2.5h-7.6v8.6c0,1.2,0.3,2.1,1,2.7c0.6,0.6,1.6,0.9,2.9,0.9c0.5,0,1.1,0,1.8-0.1
			c0.6-0.1,1.3-0.2,2-0.4V345.2z"/>
		<path class="st0" d="M433.2,328.5l-2.5,17h-3.6l-2.5-7.1l-0.5-1.7l-0.6,1.8l-2.4,7h-3.5l-2.5-17h2.9l1.4,11.5l0.3,2.6l0.7-2.2
			l2.5-7.6h2.1l2.7,7.5l0.8,2.2l0.3-2.4l1.3-11.6H433.2z"/>
		<path class="st0" d="M453.6,345.5l-0.1-2.3c-0.9,0.9-1.9,1.6-2.8,2c-1,0.4-2,0.6-3,0.6c-1,0-1.8-0.1-2.5-0.4
			c-0.7-0.2-1.3-0.6-1.7-1s-0.8-0.9-1-1.5c-0.2-0.6-0.3-1.2-0.3-1.9c0-1.7,0.6-3,1.9-4s3.1-1.4,5.6-1.4h3.5V334c0-1-0.3-1.8-1-2.4
			c-0.6-0.6-1.6-0.9-2.9-0.9c-1,0-1.9,0.1-2.8,0.3c-0.9,0.2-1.9,0.5-2.9,0.9v-2.7c0.4-0.1,0.8-0.3,1.2-0.4c0.5-0.1,0.9-0.2,1.4-0.3
			c0.5-0.1,1-0.2,1.6-0.2c0.6-0.1,1.1-0.1,1.7-0.1c1,0,2,0.1,2.8,0.3s1.5,0.6,2.1,1c0.6,0.5,1,1,1.3,1.7c0.3,0.7,0.5,1.5,0.5,2.5
			v11.7H453.6z M453.3,337.7h-3.7c-0.7,0-1.4,0.1-1.9,0.2c-0.5,0.1-1,0.4-1.3,0.6c-0.3,0.3-0.6,0.6-0.8,1c-0.2,0.4-0.2,0.8-0.2,1.3
			c0,0.3,0.1,0.6,0.2,0.9c0.1,0.3,0.3,0.6,0.5,0.8c0.2,0.2,0.5,0.4,0.9,0.5c0.4,0.1,0.8,0.2,1.3,0.2c0.7,0,1.5-0.2,2.3-0.6
			c0.9-0.4,1.8-1.1,2.8-2V337.7z"/>
		<path class="st0" d="M468.3,328.5h2.7l0.1,3.1c1-1.2,2-2.1,3-2.6c1-0.5,2-0.8,3-0.8c1.8,0,3.1,0.6,4,1.7c0.9,1.1,1.3,2.8,1.3,5.1
			h-3c0-1.5-0.2-2.6-0.7-3.2c-0.5-0.7-1.2-1-2.1-1c-0.4,0-0.8,0.1-1.2,0.2c-0.4,0.1-0.8,0.4-1.2,0.7c-0.4,0.3-0.9,0.7-1.3,1.2
			c-0.5,0.5-1,1.1-1.5,1.8v10.9h-3V328.5z"/>
		<path class="st0" d="M507.3,336.1c0,0.4,0,0.8,0,1c0,0.3,0,0.5-0.1,0.8h-11.9c0,1.7,0.5,3.1,1.5,4c1,0.9,2.4,1.4,4.2,1.4
			c0.5,0,1,0,1.5-0.1c0.5,0,1-0.1,1.4-0.2c0.5-0.1,0.9-0.1,1.3-0.2c0.4-0.1,0.8-0.2,1.2-0.3v2.4c-0.8,0.2-1.7,0.4-2.7,0.5
			c-1,0.1-2.1,0.2-3.1,0.2c-1.5,0-2.7-0.2-3.8-0.6s-1.9-1-2.6-1.7s-1.2-1.7-1.5-2.8s-0.5-2.3-0.5-3.7c0-1.2,0.2-2.3,0.5-3.4
			c0.3-1.1,0.8-2,1.5-2.8c0.7-0.8,1.5-1.4,2.4-1.9c1-0.5,2-0.7,3.3-0.7c1.2,0,2.2,0.2,3.1,0.6c0.9,0.4,1.7,0.9,2.3,1.6
			c0.6,0.7,1.1,1.5,1.4,2.5C507.2,333.8,507.3,334.9,507.3,336.1z M504.3,335.6c0-0.8,0-1.4-0.2-2.1c-0.2-0.6-0.5-1.2-0.8-1.6
			c-0.4-0.5-0.8-0.8-1.4-1.1s-1.2-0.4-2-0.4c-0.6,0-1.2,0.1-1.8,0.4c-0.5,0.2-1,0.6-1.4,1c-0.4,0.5-0.7,1-0.9,1.6
			c-0.2,0.6-0.4,1.3-0.4,2.1H504.3z"/>
	</g>
	<g>
		<g>
			<path class="st1" d="M390.5,242.4l-6.9-6.9l32.8-32.6l-32.8-32.6l6.9-6.9l36.3,36.1c0.9,0.9,1.4,2.2,1.4,3.5s-0.5,2.6-1.4,3.5
				L390.5,242.4z"/>
		</g>
		<g>
			<path class="st2" d="M431.5,195.4l-36.3-36.1c-0.9-0.9-1.4-2.2-1.4-3.5s0.5-2.6,1.4-3.5l36.3-36.1l6.9,6.9l-32.8,32.6l32.8,32.6
				L431.5,195.4z"/>
		</g>
	</g>
</g>
</svg>
